HIERARCHY
ROOT hip
{
	OFFSET 0.000000 0.000000 0.000000 
	CHANNELS 6 Xposition Yposition Zposition Xrotation Zrotation Yrotation
	JOINT abdomen
	{
		OFFSET 0.000000 3.402643 0.000000 
		CHANNELS 3 Xrotation Zrotation Yrotation
		JOINT chest
		{
			OFFSET 0.000000 8.438565 -0.680529 
			CHANNELS 3 Xrotation Zrotation Yrotation
			JOINT neck
			{
				OFFSET 0.000000 10.207942 -0.272212 
				CHANNELS 3 Xrotation Zrotation Yrotation
				JOINT head
				{
					OFFSET 0.000000 3.130431 0.000000 
					CHANNELS 3 Xrotation Zrotation Yrotation
					End Site
					{
						OFFSET 0.000000 3.130435 0.000000 
					}
				}
			}
			JOINT lCollar
			{
				OFFSET 3.470700 6.669187 -0.816635 
				CHANNELS 3 Yrotation Zrotation Xrotation
				JOINT lShldr
				{
					OFFSET 3.198488 0.000000 0.000000 
					CHANNELS 3 Zrotation Yrotation Xrotation
					JOINT lForeArm
					{
						OFFSET 10.139888 0.000000 0.000000 
						CHANNELS 3 Yrotation Zrotation Xrotation
						JOINT lHand
						{
							OFFSET 8.370511 0.000000 0.000000 
							CHANNELS 3 Zrotation Yrotation Xrotation
							End Site
							{
								OFFSET 4.083176 0.000000 0.000000 
							}
						}
					}
				}
			}
			JOINT rCollar
			{
				OFFSET -3.470700 6.669187 -0.816635 
				CHANNELS 3 Yrotation Zrotation Xrotation
				JOINT rShldr
				{
					OFFSET -3.198488 0.000000 0.000000 
					CHANNELS 3 Zrotation Yrotation Xrotation
					JOINT rForeArm
					{
						OFFSET -10.139888 0.000000 0.000000 
						CHANNELS 3 Yrotation Zrotation Xrotation
						JOINT rHand
						{
							OFFSET -8.370511 0.000000 0.000000 
							CHANNELS 3 Zrotation Yrotation Xrotation
							End Site
							{
								OFFSET -4.083176 0.000000 0.000000 
							}
						}
					}
				}
			}
		}
	}
	JOINT lThigh
	{
		OFFSET 5.308129 -1.633274 1.361059 
		CHANNELS 3 Xrotation Zrotation Yrotation
		JOINT lShin
		{
			OFFSET -2.041588 -20.007561 0.000000 
			CHANNELS 3 Xrotation Zrotation Yrotation
			JOINT lFoot
			{
				OFFSET 0.000000 -19.190928 -1.224953 
				CHANNELS 3 Xrotation Yrotation Zrotation
				End Site
				{
					OFFSET 0.000000 -2.449906 4.627600 
				}
			}
		}
	}
	JOINT rThigh
	{
		OFFSET -5.308129 -1.633274 1.361059 
		CHANNELS 3 Xrotation Zrotation Yrotation
		JOINT rShin
		{
			OFFSET 2.041588 -20.007561 0.000000 
			CHANNELS 3 Xrotation Zrotation Yrotation
			JOINT rFoot
			{
				OFFSET 0.000000 -19.190928 -1.224953 
				CHANNELS 3 Xrotation Yrotation Zrotation
				End Site
				{
					OFFSET 0.000000 -2.449906 4.627600 
				}
			}
		}
	}
}
MOTION
Frames: 9
Frame Time: 0.016667
-16.491308 48.166264 42.095875 -30.611361 33.468399 63.299442 -22.569834 -2.913150 0.633880 17.669664 -3.443235 -0.158942 -30.448761 -1.347090 0.029814 -1.742067 3.777555 -0.026668 1.993405 -2.003458 -0.008156 58.529987 -74.611908 -124.978172 -75.620094 -0.718150 -1.620393 -0.074699 0.053909 23.066423 -2.003062 1.991579 -0.506922 -61.286865 61.020035 -117.897545 71.212029 0.208163 -0.702862 0.099574 -0.136219 -4.902375 19.976877 10.643713 12.896810 38.085518 5.393953 2.263062 11.325495 -11.131882 -0.497843 -62.327675 -3.135850 11.442491 67.687126 -3.169660 -3.563647 -21.158789 -13.036350 -4.563367 
-15.598140 50.938301 42.635548 -32.648937 38.850819 69.511261 -24.028172 -3.711496 0.070698 17.626505 -3.732694 -0.599065 -29.131884 -2.056073 0.295850 -0.988250 3.573688 0.114295 1.993405 -2.003458 -0.008156 38.235153 -78.328575 -106.219055 -79.011139 -0.733973 -1.677840 -0.073447 0.053359 24.404314 -2.003062 1.991579 -0.506922 -58.017498 57.976604 -113.023705 71.172966 0.208642 -0.702720 0.095088 -0.136529 -3.017592 28.936411 8.096464 15.562309 25.604290 19.570101 3.677979 24.853756 -6.161140 -9.689619 -56.414242 -9.765547 9.264091 73.885330 -2.655919 -3.727414 -18.293255 -12.829978 -4.283232 
-14.978561 53.854134 42.972656 -33.304943 44.826263 78.354431 -25.182968 -5.288098 0.840102 18.269482 -4.433631 -0.602666 -29.050625 -3.698112 0.635358 -0.753031 3.066142 0.106261 1.993405 -2.003458 -0.008156 -1.852150 -82.891190 -64.741341 -81.786819 -0.752728 -1.726395 -0.052272 0.052582 26.181656 -2.003062 1.991579 -0.506922 -51.457165 55.753521 -105.916382 70.616257 0.206247 -0.703901 0.087112 -0.126951 0.351562 30.764938 14.130622 15.798482 27.540987 20.821341 4.288765 27.996248 -4.853988 -12.286325 -47.635910 -18.134249 5.583425 79.358543 -2.294947 -3.852579 -15.243032 -12.060897 -3.920177 
-14.715600 56.784477 43.118832 -34.362446 51.177437 87.693398 -26.117125 -6.829643 2.232666 18.590849 -5.064548 -0.314328 -29.727859 -5.449742 1.277964 -0.909180 2.655916 0.270412 1.993405 -2.003458 -0.008156 -66.327126 -80.013931 3.202986 -83.927002 -0.757791 -1.765574 -0.054406 0.042680 29.062517 -2.003062 1.991579 -0.506922 -42.489128 55.722614 -97.907104 70.958138 0.211275 -0.701933 0.081340 -0.107222 3.496089 32.099216 21.501007 15.592730 29.293335 21.819231 4.791592 28.522272 -3.767385 -14.643664 -34.728844 -24.506517 -1.068561 83.229462 -2.060713 -3.894752 -12.425834 -10.644722 -3.766376 
-14.756112 59.500374 43.185856 -37.438274 57.880684 94.828094 -27.103476 -8.028813 3.834330 18.165459 -5.885050 0.191427 -30.720436 -7.241810 2.622809 -1.338840 2.157614 0.711340 1.993405 -2.003458 -0.008156 -83.781128 -70.920609 25.452618 -85.148857 -0.769466 -1.786897 -0.057120 0.032934 32.529312 -2.003062 1.991579 -0.506922 -29.285070 57.826149 -87.461693 72.911537 0.220971 -0.718787 0.097049 -0.116728 5.078134 24.671371 40.423138 9.900516 47.711246 5.619883 2.737015 23.714277 -4.090971 -4.093574 -19.771746 -25.071730 -9.086324 85.638283 -1.953480 -3.911588 -9.105943 -9.576600 -3.775660 
-14.995317 61.873402 43.261379 -42.644104 64.642807 98.499855 -28.084530 -8.807659 5.900122 17.636528 -7.020728 0.987535 -31.663357 -8.988067 4.731525 -1.826801 1.503142 1.465752 1.993405 -2.003458 -0.008156 -86.166382 -62.165539 33.151157 -84.992371 -0.764612 -1.785649 -0.051547 0.023993 35.019535 -2.003062 1.991579 -0.506922 -10.157203 59.291348 -72.302811 76.085846 0.235276 -0.746614 0.086806 -0.116684 5.312509 15.154281 51.389027 2.692429 61.443371 3.448920 3.333167 25.642365 -11.062057 0.768319 -7.109100 -20.230347 -14.530331 87.696213 -1.807280 -3.914491 -5.381733 -9.463559 -3.775155 
-15.344808 63.896824 43.369915 -51.060184 71.180733 98.187355 -28.829931 -9.169019 8.127556 17.407887 -8.149613 1.897877 -32.408993 -10.459032 7.266143 -2.246335 0.839199 2.428024 1.993405 -2.003458 -0.008156 -85.859825 -55.596329 37.558350 -83.164856 -0.760648 -1.747980 -0.051238 0.023773 35.761723 -2.003062 1.991579 -0.506922 11.259535 57.239513 -54.904064 79.299202 0.244665 -0.768751 0.096452 -0.116673 5.371103 -2.113524 59.668533 -12.378258 76.179184 1.838067 3.825065 28.241131 -18.044617 5.739592 2.077630 -12.719959 -17.541592 90.296242 -1.574911 -3.949444 -2.239239 -9.614218 -3.828394 
-15.725683 65.654152 43.503586 -65.095337 77.124870 92.358498 -29.342455 -9.450421 10.028333 17.185968 -9.103638 2.686502 -32.783913 -11.841976 10.048491 -2.441409 0.078054 3.473234 1.993405 -2.003458 -0.008156 -84.927582 -49.933903 40.073574 -80.760513 -0.743396 -1.709297 -0.051092 0.023668 36.113285 -2.003062 1.991579 -0.506922 29.480547 51.708611 -40.555099 81.194000 0.249562 -0.781584 0.075850 -0.106745 6.435555 -29.498423 62.622597 -36.784668 91.501183 0.352705 4.072639 28.960592 -23.090185 9.030121 8.445616 -4.882515 -20.406855 93.624527 -1.192634 -3.954499 0.006403 -9.541898 -3.980063 
-16.099554 67.253548 43.520336 -89.337791 81.610764 76.345032 -29.522888 -9.776886 11.752460 17.288486 -9.930741 3.381477 -32.497036 -13.095901 12.527761 -2.285310 -0.663534 4.391713 1.993405 -2.003458 -0.008156 -83.854317 -45.173790 41.159206 -77.936325 -0.734620 -1.660367 -0.050735 0.023403 36.982430 -2.003062 1.991579 -0.506922 42.812401 44.371803 -31.206768 80.862000 0.254087 -0.780125 0.091551 -0.106243 8.496098 -57.060696 58.788799 -57.945351 106.336449 -0.996951 3.991394 27.193476 -26.302195 10.489470 12.915116 1.335894 -24.589619 97.660431 -0.772837 -3.982367 1.260105 -9.324944 -4.069414 
